HIERARCHY
ROOT Hips
{
    OFFSET 0.000000 0.000000 0.000000
    CHANNELS 6 Xposition Yposition Zposition Zrotation Xrotation Yrotation
    JOINT Spine
    {
        OFFSET -0.000000 14.517291 0.000000
        CHANNELS 3 Zrotation Xrotation Yrotation
        JOINT Spine1
        {
            OFFSET -0.000000 37.558300 0.000000
            CHANNELS 3 Zrotation Xrotation Yrotation
            JOINT Neck
            {
                OFFSET -0.000000 37.404057 3.400369
                CHANNELS 3 Zrotation Xrotation Yrotation
                JOINT Head
                {
                    OFFSET -0.000000 24.785618 -3.540803
                    CHANNELS 3 Zrotation Xrotation Yrotation
                    End Site
                    {
                        OFFSET -0.000000 35.408028 0.000000
                    }
                }
            }
            JOINT LeftShoulder
            {
                OFFSET 6.992933 33.973492 -0.192664
                CHANNELS 3 Zrotation Xrotation Yrotation
                JOINT LeftArm
                {
                    OFFSET 21.527611 0.000000 0.000000
                    CHANNELS 3 Zrotation Xrotation Yrotation
                    JOINT LeftForeArm
                    {
                        OFFSET 56.353916 0.000000 0.000000
                        CHANNELS 3 Zrotation Xrotation Yrotation
                        JOINT LeftHand
                        {
                            OFFSET 47.774071 0.000000 0.000000
                            CHANNELS 3 Zrotation Xrotation Yrotation
                            End Site
                            {
                                OFFSET 26.556021 0.000000 0.000000
                            }
                        }
                    }
                }
            }
            JOINT RightShoulder
            {
                OFFSET -7.065357 33.973492 -0.192664
                CHANNELS 3 Zrotation Xrotation Yrotation
                JOINT RightArm
                {
                    OFFSET -21.527611 0.000000 0.000000
                    CHANNELS 3 Zrotation Xrotation Yrotation
                    JOINT RightForeArm
                    {
                        OFFSET -56.353916 0.000000 0.000000
                        CHANNELS 3 Zrotation Xrotation Yrotation
                        JOINT RightHand
                        {
                            OFFSET -47.774071 0.000000 0.000000
                            CHANNELS 3 Zrotation Xrotation Yrotation
                            End Site
                            {
                                OFFSET -26.556021 0.000000 0.000000
                            }
                        }
                    }
                }
            }
        }
    }
    JOINT LeftUpLeg
    {
        OFFSET 17.704014 0.000000 0.000000
        CHANNELS 3 Zrotation Xrotation Yrotation
        JOINT LeftLeg
        {
            OFFSET -0.000000 -81.181816 0.000000
            CHANNELS 3 Zrotation Xrotation Yrotation
            JOINT LeftFoot
            {
                OFFSET -0.000000 -62.821102 0.000000
                CHANNELS 3 Zrotation Xrotation Yrotation
                JOINT LeftToeBase
                {
                    OFFSET -0.000000 -11.507608 26.556021
                    CHANNELS 3 Zrotation Xrotation Yrotation
                    End Site
                    {
                        OFFSET -0.000000 0.000000 7.081605
                    }
                }
            }
        }
    }
    JOINT RightUpLeg
    {
        OFFSET -17.704014 0.000000 0.000000
        CHANNELS 3 Zrotation Xrotation Yrotation
        JOINT RightLeg
        {
            OFFSET -0.000000 -81.181816 0.000000
            CHANNELS 3 Zrotation Xrotation Yrotation
            JOINT RightFoot
            {
                OFFSET -0.000000 -62.821102 0.000000
                CHANNELS 3 Zrotation Xrotation Yrotation
                JOINT RightToeBase
                {
                    OFFSET -0.000000 -11.507608 26.556021
                    CHANNELS 3 Zrotation Xrotation Yrotation
                    End Site
                    {
                        OFFSET -0.000000 0.000000 7.081605
                    }
                }
            }
        }
    }
}
MOTION
Frames:    11
Frame Time:    0.008333
33.398254    145.891785    -45.270359    -1.445955    -3.420220    37.829723    0.086540    -2.375988    -3.297079    -10.680790    -1.990758    -1.287427    7.599092    8.708885    -7.913494    9.965852    -5.153766    -6.918211    8.280529    -2.571229    -12.954549    -28.261372    -28.284864    -38.218567    -13.304000    -37.243084    -98.437454    -35.634747    -38.680588    -40.805775    -11.281945    4.778181    -8.904561    21.786663    23.548725    7.457735    16.619787    18.018311    0.617155    -2.918344    17.290462    25.990549    23.649874    8.889727    -2.537129    -7.303649    33.867554    -23.694418    -0.276999    -37.962601    36.347935    0.000000    0.000000    0.000000    -27.918539    -28.633673    -13.428887    19.806704    37.504444    -17.024483    3.834007    5.724380    -16.006660    0.000000    0.000000    0.000000    
33.245148    145.876541    -45.211102    -1.441900    -3.308658    37.666809    0.105611    -2.223435    -3.244854    -10.651039    -2.032652    -1.273433    7.549860    8.689231    -7.859225    10.005101    -5.280623    -6.841312    8.262640    -2.560317    -12.910151    -28.296696    -28.297169    -38.283386    -13.163603    -37.362129    -98.451660    -35.603043    -38.689857    -40.770763    -11.301944    4.780305    -8.846529    21.861670    24.104170    7.556767    16.214115    17.718460    0.891256    -2.755621    16.988998    26.037928    23.633039    8.926542    -2.546527    -7.434410    33.707031    -23.559235    -0.394610    -37.914917    36.368519    0.000000    0.000000    0.000000    -27.922222    -28.863224    -13.326722    19.905910    37.599918    -16.973610    3.755753    5.651251    -16.084019    0.000000    0.000000    0.000000    
33.103264    145.864288    -45.172016    -1.428150    -3.188816    37.521008    0.077333    -2.095108    -3.166983    -10.579806    -2.043591    -1.246938    7.551742    8.659344    -7.823304    9.963425    -5.421108    -6.801903    8.207241    -2.623574    -12.938422    -28.358032    -28.382616    -38.335377    -13.148973    -37.316410    -98.445526    -35.605194    -38.624805    -40.785854    -11.312593    4.813842    -8.821981    21.832296    24.071310    7.702141    16.221426    17.752985    0.928053    -2.709494    17.028774    26.038242    23.597637    8.945590    -2.555360    -7.562494    33.560589    -23.405817    -0.486886    -37.848927    36.377205    0.000000    0.000000    0.000000    -27.933075    -29.059216    -13.313020    19.930227    37.664543    -16.813627    3.634874    5.564106    -16.188437    0.000000    0.000000    0.000000    
32.971867    145.862289    -45.153622    -1.403749    -3.058780    37.393448    0.087621    -2.037773    -3.162465    -10.737319    -1.958151    -1.239080    7.909696    8.614027    -7.712911    9.711972    -5.593957    -6.748608    8.440693    -2.621658    -12.821048    -28.628019    -28.601776    -38.562981    -13.199742    -37.103962    -98.492828    -35.401325    -38.589836    -40.613262    -11.069048    4.697802    -8.614370    21.763197    24.117010    7.659110    16.135431    17.753023    1.011848    -2.623700    17.035135    26.124155    23.540821    8.947900    -2.545382    -7.671271    33.418793    -23.258551    -0.614974    -37.780048    36.340633    0.000000    0.000000    0.000000    -27.954741    -29.224604    -13.352878    19.884027    37.699013    -16.583679    3.547884    5.465610    -16.277327    0.000000    0.000000    0.000000    
32.843201    145.867844    -45.155273    -1.377202    -2.914696    37.294964    0.037884    -1.928450    -3.149148    -10.692761    -1.981635    -1.235760    7.913506    8.596679    -7.674383    9.671481    -5.690714    -6.709674    8.439041    -2.650486    -12.780381    -28.667055    -28.555725    -38.636997    -13.167208    -37.221764    -98.497635    -35.408787    -38.665325    -40.641872    -11.081559    4.680111    -8.533561    21.764181    24.267080    7.763329    16.060022    17.722641    1.066118    -2.610292    16.998131    26.246332    23.472469    8.905627    -2.522353    -7.754412    33.311932    -23.168835    -0.735924    -37.707417    36.319260    0.000000    0.000000    0.000000    -27.987162    -29.369129    -13.443908    19.789799    37.701775    -16.322374    3.413331    5.368062    -16.346426    0.000000    0.000000    0.000000    
32.724808    145.881897    -45.181919    -1.365892    -2.738339    37.223083    -0.024432    -1.882558    -3.145507    -10.650970    -1.980072    -1.233259    7.955423    8.582131    -7.589022    9.608342    -5.791201    -6.628502    8.448256    -2.674301    -12.760600    -28.710796    -28.564531    -38.719769    -13.105968    -37.280872    -98.445374    -35.335659    -38.677517    -40.645092    -11.063933    4.705773    -8.429658    21.703436    24.199032    7.819384    16.078421    17.760029    1.141849    -2.528538    17.045036    26.176985    23.389225    8.804407    -2.493810    -7.832835    33.224674    -23.056162    -0.866559    -37.625351    36.244652    0.000000    0.000000    0.000000    -28.042439    -29.516476    -13.608665    19.636141    37.681618    -16.048002    3.292657    5.296349    -16.368010    0.000000    0.000000    0.000000    
32.611134    145.904800    -45.235199    -1.369393    -2.554290    37.159344    -0.112121    -1.840087    -3.141356    -10.519230    -2.012615    -1.232169    7.901484    8.598666    -7.561250    9.559983    -5.876318    -6.596793    8.378420    -2.665325    -12.778195    -28.715555    -28.608505    -38.782383    -13.136950    -37.311077    -98.418381    -35.276863    -38.750835    -40.639561    -11.141382    4.678376    -8.340472    21.714954    24.370235    7.856344    15.969903    17.733469    1.216884    -2.538014    17.006342    26.218317    23.301804    8.665723    -2.425883    -7.874354    33.167309    -22.976068    -1.031627    -37.551373    36.154259    0.000000    0.000000    0.000000    -28.088573    -29.669357    -13.802328    19.424366    37.639217    -15.795313    3.218088    5.253321    -16.315252    0.000000    0.000000    0.000000    
32.501488    145.937607    -45.314396    -1.391474    -2.359532    37.114651    -0.165140    -1.808613    -3.132023    -10.443247    -2.054749    -1.231275    7.898826    8.582869    -7.503992    9.498245    -5.936391    -6.545054    8.326173    -2.719348    -12.786194    -28.702244    -28.536524    -38.845844    -13.079550    -37.395317    -98.324417    -35.237705    -38.769131    -40.651508    -11.163019    4.731853    -8.298327    21.632366    24.174603    7.984163    16.089809    17.836477    1.122171    -2.646693    17.093880    26.356602    23.218174    8.483006    -2.369002    -7.922692    33.128906    -22.867819    -1.173397    -37.461929    36.041283    0.000000    0.000000    0.000000    -28.141043    -29.835106    -14.002521    19.212818    37.576218    -15.577127    3.132720    5.267345    -16.276533    0.000000    0.000000    0.000000    
32.392139    145.978378    -45.404877    -1.426849    -2.184557    37.078037    -0.173329    -1.767418    -3.119821    -10.429724    -2.098969    -1.231007    7.942730    8.512147    -7.463515    9.405721    -5.929494    -6.529550    8.353464    -2.728418    -12.807649    -28.695036    -28.467094    -38.923618    -13.076037    -37.536266    -98.296074    -35.208622    -38.915550    -40.623466    -11.160872    4.709579    -8.271757    21.632231    24.330656    8.010473    15.924213    17.766514    1.193903    -2.634709    17.017811    26.377417    23.166403    8.302568    -2.312789    -7.975204    33.085209    -22.786179    -1.330392    -37.380188    35.916786    0.000000    0.000000    0.000000    -28.167643    -29.993942    -14.167302    19.006878    37.496513    -15.441886    3.078971    5.317646    -16.192057    0.000000    0.000000    0.000000    
32.297848    146.022217    -45.499905    -1.460651    -2.039610    37.051380    -0.152066    -1.735116    -3.112775    -10.444349    -2.112666    -1.230268    8.028649    8.527413    -7.441270    9.288775    -6.025014    -6.526447    8.403929    -2.744019    -12.820409    -28.683229    -28.388901    -39.003975    -13.020922    -37.687943    -98.186340    -35.283138    -38.930988    -40.747284    -11.140542    4.653963    -8.213182    21.598570    24.328995    7.999930    15.884978    17.730207    1.211876    -2.595478    16.989019    26.339087    23.129494    8.147558    -2.249408    -8.011374    33.035957    -22.753925    -1.452003    -37.304562    35.821178    0.000000    0.000000    0.000000    -28.191631    -30.126873    -14.240932    18.891319    37.388515    -15.436999    3.012349    5.404426    -16.107962    0.000000    0.000000    0.000000    
32.208519    146.071060    -45.617737    -1.503335    -1.887004    37.023136    -0.128178    -1.705247    -3.108254    -10.469956    -2.150464    -1.232806    8.099889    8.469432    -7.370256    9.210962    -6.029911    -6.476521    8.459325    -2.726026    -12.820366    -28.616333    -28.268541    -39.083622    -12.978646    -37.870174    -98.114006    -35.277641    -39.052620    -40.765297    -11.086343    4.643712    -8.152603    21.520588    24.241932    8.021731    15.888849    17.742638    1.154792    -2.673594    16.990496    26.385798    23.087500    7.985737    -2.175328    -8.046101    32.969425    -22.740900    -1.528797    -37.207962    35.748474    0.000000    0.000000    0.000000    -28.219944    -30.276588    -14.258464    18.815783    37.255394    -15.452504    2.968793    5.519622    -16.086300    0.000000    0.000000    0.000000    
